<mxfile host="app.diagrams.net" modified="2021-05-20T03:05:05.570Z" agent="5.0 (Windows NT 10.0; Win64; x64) AppleWebKit/537.36 (KHTML, like Gecko) Chrome/90.0.4430.212 Safari/537.36" etag="zDabA6GFXPdE_MY_tWKa" version="14.6.13" type="github">
  <diagram id="iIHYUd3_f0RwSLK5Qi1C" name="Page-1">
    <mxGraphModel dx="2595" dy="1370" grid="1" gridSize="10" guides="1" tooltips="1" connect="1" arrows="1" fold="1" page="1" pageScale="1" pageWidth="2336" pageHeight="1654" math="0" shadow="0">
      <root>
        <mxCell id="0" />
        <mxCell id="1" parent="0" />
        <mxCell id="OzW8gkyC8wNDTE9PfF5A-3" style="edgeStyle=orthogonalEdgeStyle;orthogonalLoop=1;jettySize=auto;html=1;exitX=1;exitY=0.5;exitDx=0;exitDy=0;entryX=0;entryY=0.5;entryDx=0;entryDy=0;" edge="1" parent="1" source="OzW8gkyC8wNDTE9PfF5A-1" target="OzW8gkyC8wNDTE9PfF5A-2">
          <mxGeometry relative="1" as="geometry" />
        </mxCell>
        <mxCell id="OzW8gkyC8wNDTE9PfF5A-16" style="edgeStyle=orthogonalEdgeStyle;orthogonalLoop=1;jettySize=auto;html=1;exitX=1;exitY=0.5;exitDx=0;exitDy=0;entryX=0;entryY=0.5;entryDx=0;entryDy=0;" edge="1" parent="1" source="OzW8gkyC8wNDTE9PfF5A-1" target="OzW8gkyC8wNDTE9PfF5A-12">
          <mxGeometry relative="1" as="geometry">
            <Array as="points">
              <mxPoint x="588" y="1075" />
              <mxPoint x="588" y="1005" />
            </Array>
          </mxGeometry>
        </mxCell>
        <mxCell id="OzW8gkyC8wNDTE9PfF5A-19" style="edgeStyle=orthogonalEdgeStyle;orthogonalLoop=1;jettySize=auto;html=1;exitX=1;exitY=0.5;exitDx=0;exitDy=0;entryX=0.75;entryY=1;entryDx=0;entryDy=0;" edge="1" parent="1" source="OzW8gkyC8wNDTE9PfF5A-1" target="OzW8gkyC8wNDTE9PfF5A-17">
          <mxGeometry relative="1" as="geometry" />
        </mxCell>
        <mxCell id="OzW8gkyC8wNDTE9PfF5A-15" style="edgeStyle=orthogonalEdgeStyle;orthogonalLoop=1;jettySize=auto;html=1;exitX=1;exitY=0.5;exitDx=0;exitDy=0;entryX=0;entryY=0.5;entryDx=0;entryDy=0;" edge="1" parent="1" source="OzW8gkyC8wNDTE9PfF5A-2" target="OzW8gkyC8wNDTE9PfF5A-11">
          <mxGeometry relative="1" as="geometry" />
        </mxCell>
        <mxCell id="OzW8gkyC8wNDTE9PfF5A-2" value="Ins Mem" style="whiteSpace=wrap;html=1;" vertex="1" parent="1">
          <mxGeometry x="608" y="1045" width="80" height="60" as="geometry" />
        </mxCell>
        <mxCell id="OzW8gkyC8wNDTE9PfF5A-73" style="edgeStyle=orthogonalEdgeStyle;orthogonalLoop=1;jettySize=auto;html=1;entryX=0;entryY=0.5;entryDx=0;entryDy=0;fontSize=5;" edge="1" parent="1" source="OzW8gkyC8wNDTE9PfF5A-12" target="OzW8gkyC8wNDTE9PfF5A-71">
          <mxGeometry relative="1" as="geometry">
            <Array as="points">
              <mxPoint x="848" y="1005" />
              <mxPoint x="848" y="948" />
            </Array>
          </mxGeometry>
        </mxCell>
        <mxCell id="OzW8gkyC8wNDTE9PfF5A-12" value="PC_IF_ID" style="whiteSpace=wrap;html=1;labelBackgroundColor=none;labelBorderColor=none;fillColor=#d5e8d4;strokeColor=#82b366;" vertex="1" parent="1">
          <mxGeometry x="768" y="995" width="70" height="20" as="geometry" />
        </mxCell>
        <mxCell id="OzW8gkyC8wNDTE9PfF5A-74" style="edgeStyle=orthogonalEdgeStyle;orthogonalLoop=1;jettySize=auto;html=1;exitX=1;exitY=0.5;exitDx=0;exitDy=0;entryX=0;entryY=0.5;entryDx=0;entryDy=0;fontSize=5;" edge="1" parent="1" source="OzW8gkyC8wNDTE9PfF5A-13" target="OzW8gkyC8wNDTE9PfF5A-70">
          <mxGeometry relative="1" as="geometry" />
        </mxCell>
        <mxCell id="OzW8gkyC8wNDTE9PfF5A-13" value="PC4_IF_ID" style="whiteSpace=wrap;html=1;labelBackgroundColor=none;labelBorderColor=none;fillColor=#d5e8d4;strokeColor=#82b366;" vertex="1" parent="1">
          <mxGeometry x="768" y="927.5" width="70" height="15" as="geometry" />
        </mxCell>
        <mxCell id="OzW8gkyC8wNDTE9PfF5A-18" style="edgeStyle=orthogonalEdgeStyle;orthogonalLoop=1;jettySize=auto;html=1;entryX=0;entryY=0.5;entryDx=0;entryDy=0;" edge="1" parent="1" source="OzW8gkyC8wNDTE9PfF5A-17" target="OzW8gkyC8wNDTE9PfF5A-13">
          <mxGeometry relative="1" as="geometry" />
        </mxCell>
        <mxCell id="OzW8gkyC8wNDTE9PfF5A-144" style="edgeStyle=orthogonalEdgeStyle;orthogonalLoop=1;jettySize=auto;html=1;entryX=0.374;entryY=1.014;entryDx=0;entryDy=0;entryPerimeter=0;" edge="1" parent="1" source="OzW8gkyC8wNDTE9PfF5A-17" target="OzW8gkyC8wNDTE9PfF5A-27">
          <mxGeometry relative="1" as="geometry">
            <Array as="points">
              <mxPoint x="688" y="935" />
              <mxPoint x="688" y="870" />
              <mxPoint x="406" y="870" />
              <mxPoint x="406" y="1066" />
            </Array>
          </mxGeometry>
        </mxCell>
        <mxCell id="OzW8gkyC8wNDTE9PfF5A-17" value="ADD" style="shape=trapezoid;perimeter=trapezoidPerimeter;whiteSpace=wrap;html=1;fixedSize=1;direction=south;" vertex="1" parent="1">
          <mxGeometry x="618" y="900" width="40" height="70" as="geometry" />
        </mxCell>
        <mxCell id="OzW8gkyC8wNDTE9PfF5A-25" style="edgeStyle=orthogonalEdgeStyle;orthogonalLoop=1;jettySize=auto;html=1;entryX=0.357;entryY=0.95;entryDx=0;entryDy=0;entryPerimeter=0;" edge="1" parent="1" source="OzW8gkyC8wNDTE9PfF5A-22" target="OzW8gkyC8wNDTE9PfF5A-17">
          <mxGeometry relative="1" as="geometry" />
        </mxCell>
        <mxCell id="OzW8gkyC8wNDTE9PfF5A-22" value="4" style="ellipse;whiteSpace=wrap;html=1;aspect=fixed;" vertex="1" parent="1">
          <mxGeometry x="568" y="915" width="20" height="20" as="geometry" />
        </mxCell>
        <mxCell id="OzW8gkyC8wNDTE9PfF5A-36" style="edgeStyle=orthogonalEdgeStyle;orthogonalLoop=1;jettySize=auto;html=1;exitX=0.5;exitY=0;exitDx=0;exitDy=0;exitPerimeter=0;" edge="1" parent="1" source="OzW8gkyC8wNDTE9PfF5A-27" target="OzW8gkyC8wNDTE9PfF5A-1">
          <mxGeometry relative="1" as="geometry" />
        </mxCell>
        <mxCell id="OzW8gkyC8wNDTE9PfF5A-27" value="" style="strokeWidth=2;html=1;shape=mxgraph.flowchart.terminator;whiteSpace=wrap;rotation=90;" vertex="1" parent="1">
          <mxGeometry x="408" y="1057.5" width="70" height="35" as="geometry" />
        </mxCell>
        <mxCell id="OzW8gkyC8wNDTE9PfF5A-166" style="edgeStyle=orthogonalEdgeStyle;orthogonalLoop=1;jettySize=auto;html=1;entryX=-0.002;entryY=0.907;entryDx=0;entryDy=0;entryPerimeter=0;" edge="1" parent="1" source="OzW8gkyC8wNDTE9PfF5A-35" target="OzW8gkyC8wNDTE9PfF5A-41">
          <mxGeometry relative="1" as="geometry">
            <Array as="points">
              <mxPoint x="1948" y="955" />
              <mxPoint x="1948" y="1280" />
              <mxPoint x="878" y="1280" />
              <mxPoint x="878" y="1091" />
            </Array>
          </mxGeometry>
        </mxCell>
        <mxCell id="OzW8gkyC8wNDTE9PfF5A-183" style="edgeStyle=orthogonalEdgeStyle;orthogonalLoop=1;jettySize=auto;html=1;entryX=1;entryY=0.5;entryDx=0;entryDy=0;" edge="1" parent="1" source="OzW8gkyC8wNDTE9PfF5A-35" target="OzW8gkyC8wNDTE9PfF5A-170">
          <mxGeometry relative="1" as="geometry">
            <Array as="points">
              <mxPoint x="1948" y="955" />
              <mxPoint x="1948" y="588" />
            </Array>
          </mxGeometry>
        </mxCell>
        <mxCell id="OzW8gkyC8wNDTE9PfF5A-35" value="" style="strokeWidth=2;html=1;shape=mxgraph.flowchart.terminator;whiteSpace=wrap;rotation=90;" vertex="1" parent="1">
          <mxGeometry x="1868" y="942.5" width="70" height="24.38" as="geometry" />
        </mxCell>
        <mxCell id="OzW8gkyC8wNDTE9PfF5A-68" style="edgeStyle=orthogonalEdgeStyle;orthogonalLoop=1;jettySize=auto;html=1;exitX=1;exitY=0.25;exitDx=0;exitDy=0;entryX=0;entryY=0.5;entryDx=0;entryDy=0;fontSize=5;" edge="1" parent="1" source="OzW8gkyC8wNDTE9PfF5A-41" target="OzW8gkyC8wNDTE9PfF5A-66">
          <mxGeometry relative="1" as="geometry" />
        </mxCell>
        <mxCell id="OzW8gkyC8wNDTE9PfF5A-69" style="edgeStyle=orthogonalEdgeStyle;orthogonalLoop=1;jettySize=auto;html=1;exitX=1;exitY=0.5;exitDx=0;exitDy=0;fontSize=5;" edge="1" parent="1" source="OzW8gkyC8wNDTE9PfF5A-41" target="OzW8gkyC8wNDTE9PfF5A-65">
          <mxGeometry relative="1" as="geometry" />
        </mxCell>
        <mxCell id="OzW8gkyC8wNDTE9PfF5A-44" value="" style="whiteSpace=wrap;html=1;labelBackgroundColor=none;labelBorderColor=none;fillColor=#d5e8d4;strokeColor=#82b366;" vertex="1" connectable="0" parent="1">
          <mxGeometry x="768" y="1062.5" width="70" height="25" as="geometry" />
        </mxCell>
        <mxCell id="OzW8gkyC8wNDTE9PfF5A-11" value="IR_IF_ID" style="html=1;fillColor=#d5e8d4;strokeColor=#82b366;" vertex="1" parent="OzW8gkyC8wNDTE9PfF5A-44">
          <mxGeometry width="70" height="25" as="geometry" />
        </mxCell>
        <mxCell id="OzW8gkyC8wNDTE9PfF5A-51" style="edgeStyle=orthogonalEdgeStyle;orthogonalLoop=1;jettySize=auto;html=1;entryX=0;entryY=0.25;entryDx=0;entryDy=0;fontSize=5;" edge="1" parent="1" source="OzW8gkyC8wNDTE9PfF5A-11" target="OzW8gkyC8wNDTE9PfF5A-41">
          <mxGeometry relative="1" as="geometry">
            <Array as="points">
              <mxPoint x="868" y="1075" />
              <mxPoint x="868" y="993" />
            </Array>
          </mxGeometry>
        </mxCell>
        <mxCell id="OzW8gkyC8wNDTE9PfF5A-52" style="edgeStyle=orthogonalEdgeStyle;orthogonalLoop=1;jettySize=auto;html=1;fontSize=5;" edge="1" parent="1" source="OzW8gkyC8wNDTE9PfF5A-11" target="OzW8gkyC8wNDTE9PfF5A-41">
          <mxGeometry relative="1" as="geometry">
            <Array as="points">
              <mxPoint x="868" y="1075" />
              <mxPoint x="868" y="1030" />
            </Array>
          </mxGeometry>
        </mxCell>
        <mxCell id="OzW8gkyC8wNDTE9PfF5A-75" style="edgeStyle=orthogonalEdgeStyle;orthogonalLoop=1;jettySize=auto;html=1;entryX=0;entryY=0.5;entryDx=0;entryDy=0;fontSize=5;" edge="1" parent="1" source="OzW8gkyC8wNDTE9PfF5A-53" target="OzW8gkyC8wNDTE9PfF5A-64">
          <mxGeometry relative="1" as="geometry" />
        </mxCell>
        <mxCell id="OzW8gkyC8wNDTE9PfF5A-53" value="control" style="ellipse;whiteSpace=wrap;html=1;fontSize=5;" vertex="1" parent="1">
          <mxGeometry x="898" y="850" width="90" height="50" as="geometry" />
        </mxCell>
        <mxCell id="OzW8gkyC8wNDTE9PfF5A-54" style="edgeStyle=orthogonalEdgeStyle;orthogonalLoop=1;jettySize=auto;html=1;entryX=0;entryY=0.5;entryDx=0;entryDy=0;fontSize=5;" edge="1" parent="1" source="OzW8gkyC8wNDTE9PfF5A-11" target="OzW8gkyC8wNDTE9PfF5A-53">
          <mxGeometry relative="1" as="geometry" />
        </mxCell>
        <mxCell id="OzW8gkyC8wNDTE9PfF5A-81" style="edgeStyle=orthogonalEdgeStyle;orthogonalLoop=1;jettySize=auto;html=1;entryX=0;entryY=0.5;entryDx=0;entryDy=0;fontSize=5;" edge="1" parent="1" source="OzW8gkyC8wNDTE9PfF5A-55" target="OzW8gkyC8wNDTE9PfF5A-61">
          <mxGeometry relative="1" as="geometry" />
        </mxCell>
        <mxCell id="OzW8gkyC8wNDTE9PfF5A-55" value="Imm" style="ellipse;whiteSpace=wrap;html=1;fontSize=5;" vertex="1" parent="1">
          <mxGeometry x="905.5" y="1140" width="95" height="40" as="geometry" />
        </mxCell>
        <mxCell id="OzW8gkyC8wNDTE9PfF5A-56" style="edgeStyle=orthogonalEdgeStyle;orthogonalLoop=1;jettySize=auto;html=1;entryX=0;entryY=0.5;entryDx=0;entryDy=0;fontSize=5;" edge="1" parent="1" source="OzW8gkyC8wNDTE9PfF5A-11" target="OzW8gkyC8wNDTE9PfF5A-55">
          <mxGeometry relative="1" as="geometry">
            <Array as="points">
              <mxPoint x="868" y="1075" />
              <mxPoint x="868" y="1160" />
            </Array>
          </mxGeometry>
        </mxCell>
        <mxCell id="OzW8gkyC8wNDTE9PfF5A-115" style="edgeStyle=orthogonalEdgeStyle;orthogonalLoop=1;jettySize=auto;html=1;entryX=0;entryY=0.25;entryDx=0;entryDy=0;" edge="1" parent="1" source="OzW8gkyC8wNDTE9PfF5A-60" target="OzW8gkyC8wNDTE9PfF5A-113">
          <mxGeometry relative="1" as="geometry">
            <Array as="points">
              <mxPoint x="1488" y="1005" />
              <mxPoint x="1488" y="967" />
              <mxPoint x="1568" y="967" />
            </Array>
          </mxGeometry>
        </mxCell>
        <mxCell id="OzW8gkyC8wNDTE9PfF5A-174" style="edgeStyle=orthogonalEdgeStyle;orthogonalLoop=1;jettySize=auto;html=1;entryX=0.995;entryY=0.623;entryDx=0;entryDy=0;entryPerimeter=0;" edge="1" parent="1" source="OzW8gkyC8wNDTE9PfF5A-60" target="OzW8gkyC8wNDTE9PfF5A-170">
          <mxGeometry relative="1" as="geometry">
            <Array as="points">
              <mxPoint x="1488" y="1005" />
              <mxPoint x="1488" y="598" />
            </Array>
          </mxGeometry>
        </mxCell>
        <mxCell id="OzW8gkyC8wNDTE9PfF5A-60" value="ALUans_EX_MEM" style="whiteSpace=wrap;html=1;fillColor=#fff2cc;strokeColor=#d6b656;" vertex="1" parent="1">
          <mxGeometry x="1358" y="986.87" width="110" height="36.25" as="geometry" />
        </mxCell>
        <mxCell id="OzW8gkyC8wNDTE9PfF5A-141" style="edgeStyle=orthogonalEdgeStyle;orthogonalLoop=1;jettySize=auto;html=1;entryX=0.75;entryY=1;entryDx=0;entryDy=0;" edge="1" parent="1" source="OzW8gkyC8wNDTE9PfF5A-61" target="OzW8gkyC8wNDTE9PfF5A-138">
          <mxGeometry relative="1" as="geometry" />
        </mxCell>
        <mxCell id="OzW8gkyC8wNDTE9PfF5A-61" value="Imm_ID_EX" style="whiteSpace=wrap;html=1;fillColor=#dae8fc;strokeColor=#6c8ebf;" vertex="1" parent="1">
          <mxGeometry x="1038" y="1115" width="70" height="25" as="geometry" />
        </mxCell>
        <mxCell id="OzW8gkyC8wNDTE9PfF5A-100" style="edgeStyle=orthogonalEdgeStyle;orthogonalLoop=1;jettySize=auto;html=1;entryX=0;entryY=0.5;entryDx=0;entryDy=0;fontSize=5;" edge="1" parent="1" source="OzW8gkyC8wNDTE9PfF5A-63" target="OzW8gkyC8wNDTE9PfF5A-99">
          <mxGeometry relative="1" as="geometry" />
        </mxCell>
        <mxCell id="OzW8gkyC8wNDTE9PfF5A-182" style="edgeStyle=orthogonalEdgeStyle;orthogonalLoop=1;jettySize=auto;html=1;entryX=0.5;entryY=1;entryDx=0;entryDy=0;" edge="1" parent="1" source="OzW8gkyC8wNDTE9PfF5A-63" target="OzW8gkyC8wNDTE9PfF5A-170">
          <mxGeometry relative="1" as="geometry">
            <Array as="points">
              <mxPoint x="1318" y="1075" />
              <mxPoint x="1318" y="660" />
              <mxPoint x="1413" y="660" />
            </Array>
          </mxGeometry>
        </mxCell>
        <mxCell id="OzW8gkyC8wNDTE9PfF5A-63" value="IR_ID_EX" style="whiteSpace=wrap;html=1;fillColor=#dae8fc;strokeColor=#6c8ebf;" vertex="1" parent="1">
          <mxGeometry x="1038" y="1057.5" width="70" height="35" as="geometry" />
        </mxCell>
        <mxCell id="OzW8gkyC8wNDTE9PfF5A-107" style="edgeStyle=orthogonalEdgeStyle;orthogonalLoop=1;jettySize=auto;html=1;entryX=0;entryY=0.5;entryDx=0;entryDy=0;fontSize=5;" edge="1" parent="1" source="OzW8gkyC8wNDTE9PfF5A-64" target="OzW8gkyC8wNDTE9PfF5A-106">
          <mxGeometry relative="1" as="geometry" />
        </mxCell>
        <mxCell id="OzW8gkyC8wNDTE9PfF5A-132" style="edgeStyle=orthogonalEdgeStyle;orthogonalLoop=1;jettySize=auto;html=1;entryX=0;entryY=0.25;entryDx=0;entryDy=0;entryPerimeter=0;" edge="1" parent="1" source="OzW8gkyC8wNDTE9PfF5A-64" target="OzW8gkyC8wNDTE9PfF5A-131">
          <mxGeometry relative="1" as="geometry" />
        </mxCell>
        <mxCell id="OzW8gkyC8wNDTE9PfF5A-134" value="beq" style="edgeLabel;html=1;align=center;verticalAlign=middle;resizable=0;points=[];" vertex="1" connectable="0" parent="OzW8gkyC8wNDTE9PfF5A-132">
          <mxGeometry x="0.4592" y="10" relative="1" as="geometry">
            <mxPoint x="6" y="-13" as="offset" />
          </mxGeometry>
        </mxCell>
        <mxCell id="OzW8gkyC8wNDTE9PfF5A-147" style="edgeStyle=orthogonalEdgeStyle;orthogonalLoop=1;jettySize=auto;html=1;entryX=0.175;entryY=0.75;entryDx=0;entryDy=0;entryPerimeter=0;" edge="1" parent="1" source="OzW8gkyC8wNDTE9PfF5A-64" target="OzW8gkyC8wNDTE9PfF5A-145">
          <mxGeometry relative="1" as="geometry">
            <Array as="points">
              <mxPoint x="1258" y="868" />
              <mxPoint x="1258" y="776" />
            </Array>
          </mxGeometry>
        </mxCell>
        <mxCell id="OzW8gkyC8wNDTE9PfF5A-148" value="jal" style="edgeLabel;html=1;align=center;verticalAlign=middle;resizable=0;points=[];" vertex="1" connectable="0" parent="OzW8gkyC8wNDTE9PfF5A-147">
          <mxGeometry x="0.7106" y="-1" relative="1" as="geometry">
            <mxPoint as="offset" />
          </mxGeometry>
        </mxCell>
        <mxCell id="OzW8gkyC8wNDTE9PfF5A-204" style="edgeStyle=orthogonalEdgeStyle;orthogonalLoop=1;jettySize=auto;html=1;entryX=0;entryY=0;entryDx=0;entryDy=0;" edge="1" parent="1" source="OzW8gkyC8wNDTE9PfF5A-64" target="OzW8gkyC8wNDTE9PfF5A-82">
          <mxGeometry relative="1" as="geometry" />
        </mxCell>
        <mxCell id="OzW8gkyC8wNDTE9PfF5A-64" value="CTRL_ID_EX" style="whiteSpace=wrap;html=1;fillColor=#dae8fc;strokeColor=#6c8ebf;" vertex="1" parent="1">
          <mxGeometry x="1035" y="845" width="80" height="45" as="geometry" />
        </mxCell>
        <mxCell id="OzW8gkyC8wNDTE9PfF5A-97" style="edgeStyle=orthogonalEdgeStyle;orthogonalLoop=1;jettySize=auto;html=1;entryX=0.89;entryY=0.89;entryDx=0;entryDy=0;entryPerimeter=0;fontSize=5;" edge="1" parent="1" source="OzW8gkyC8wNDTE9PfF5A-65" target="OzW8gkyC8wNDTE9PfF5A-90">
          <mxGeometry relative="1" as="geometry" />
        </mxCell>
        <mxCell id="OzW8gkyC8wNDTE9PfF5A-65" value="B" style="whiteSpace=wrap;html=1;fillColor=#dae8fc;strokeColor=#6c8ebf;" vertex="1" parent="1">
          <mxGeometry x="1038" y="1012.5" width="70" height="17.5" as="geometry" />
        </mxCell>
        <mxCell id="OzW8gkyC8wNDTE9PfF5A-96" style="edgeStyle=orthogonalEdgeStyle;orthogonalLoop=1;jettySize=auto;html=1;entryX=0.89;entryY=0.89;entryDx=0;entryDy=0;entryPerimeter=0;fontSize=5;" edge="1" parent="1" source="OzW8gkyC8wNDTE9PfF5A-66" target="OzW8gkyC8wNDTE9PfF5A-84">
          <mxGeometry relative="1" as="geometry" />
        </mxCell>
        <mxCell id="OzW8gkyC8wNDTE9PfF5A-66" value="A" style="whiteSpace=wrap;html=1;fillColor=#dae8fc;strokeColor=#6c8ebf;" vertex="1" parent="1">
          <mxGeometry x="1040" y="980" width="70" height="20" as="geometry" />
        </mxCell>
        <mxCell id="OzW8gkyC8wNDTE9PfF5A-105" style="edgeStyle=orthogonalEdgeStyle;orthogonalLoop=1;jettySize=auto;html=1;entryX=0;entryY=0.5;entryDx=0;entryDy=0;fontSize=5;" edge="1" parent="1" source="OzW8gkyC8wNDTE9PfF5A-70" target="OzW8gkyC8wNDTE9PfF5A-104">
          <mxGeometry relative="1" as="geometry" />
        </mxCell>
        <mxCell id="OzW8gkyC8wNDTE9PfF5A-70" value="PC4_ID_EX" style="whiteSpace=wrap;html=1;fillColor=#dae8fc;strokeColor=#6c8ebf;" vertex="1" parent="1">
          <mxGeometry x="1038" y="910" width="70" height="15" as="geometry" />
        </mxCell>
        <mxCell id="OzW8gkyC8wNDTE9PfF5A-142" style="edgeStyle=orthogonalEdgeStyle;orthogonalLoop=1;jettySize=auto;html=1;entryX=0.25;entryY=1;entryDx=0;entryDy=0;" edge="1" parent="1" source="OzW8gkyC8wNDTE9PfF5A-71" target="OzW8gkyC8wNDTE9PfF5A-138">
          <mxGeometry relative="1" as="geometry" />
        </mxCell>
        <mxCell id="OzW8gkyC8wNDTE9PfF5A-71" value="PC_ID_EX" style="whiteSpace=wrap;html=1;fillColor=#dae8fc;strokeColor=#6c8ebf;" vertex="1" parent="1">
          <mxGeometry x="1038" y="940" width="70" height="15" as="geometry" />
        </mxCell>
        <mxCell id="OzW8gkyC8wNDTE9PfF5A-77" style="edgeStyle=orthogonalEdgeStyle;orthogonalLoop=1;jettySize=auto;html=1;entryX=0;entryY=0.5;entryDx=0;entryDy=0;fontSize=5;" edge="1" parent="1" source="OzW8gkyC8wNDTE9PfF5A-11" target="OzW8gkyC8wNDTE9PfF5A-63">
          <mxGeometry relative="1" as="geometry">
            <Array as="points">
              <mxPoint x="868" y="1075" />
              <mxPoint x="868" y="1120" />
              <mxPoint x="1018" y="1120" />
              <mxPoint x="1018" y="1075" />
            </Array>
          </mxGeometry>
        </mxCell>
        <mxCell id="OzW8gkyC8wNDTE9PfF5A-98" style="edgeStyle=orthogonalEdgeStyle;orthogonalLoop=1;jettySize=auto;html=1;entryX=0;entryY=0.5;entryDx=0;entryDy=0;fontSize=5;" edge="1" parent="1" source="OzW8gkyC8wNDTE9PfF5A-82" target="OzW8gkyC8wNDTE9PfF5A-60">
          <mxGeometry relative="1" as="geometry" />
        </mxCell>
        <mxCell id="OzW8gkyC8wNDTE9PfF5A-133" style="edgeStyle=orthogonalEdgeStyle;orthogonalLoop=1;jettySize=auto;html=1;exitX=0;exitY=0.75;exitDx=0;exitDy=0;entryX=0;entryY=0.75;entryDx=0;entryDy=0;entryPerimeter=0;" edge="1" parent="1" source="OzW8gkyC8wNDTE9PfF5A-82" target="OzW8gkyC8wNDTE9PfF5A-131">
          <mxGeometry relative="1" as="geometry">
            <Array as="points">
              <mxPoint x="1269" y="940" />
              <mxPoint x="1234" y="940" />
            </Array>
          </mxGeometry>
        </mxCell>
        <mxCell id="OzW8gkyC8wNDTE9PfF5A-135" value="zero" style="edgeLabel;html=1;align=center;verticalAlign=middle;resizable=0;points=[];" vertex="1" connectable="0" parent="OzW8gkyC8wNDTE9PfF5A-133">
          <mxGeometry x="0.5962" y="-2" relative="1" as="geometry">
            <mxPoint x="2" y="-18" as="offset" />
          </mxGeometry>
        </mxCell>
        <mxCell id="OzW8gkyC8wNDTE9PfF5A-88" style="edgeStyle=orthogonalEdgeStyle;orthogonalLoop=1;jettySize=auto;html=1;entryX=0.25;entryY=1;entryDx=0;entryDy=0;fontSize=5;" edge="1" parent="1" source="OzW8gkyC8wNDTE9PfF5A-84" target="OzW8gkyC8wNDTE9PfF5A-82">
          <mxGeometry relative="1" as="geometry">
            <Array as="points">
              <mxPoint x="1228" y="979" />
            </Array>
          </mxGeometry>
        </mxCell>
        <mxCell id="OzW8gkyC8wNDTE9PfF5A-84" value="" style="strokeWidth=2;html=1;shape=mxgraph.flowchart.terminator;whiteSpace=wrap;rotation=90;" vertex="1" parent="1">
          <mxGeometry x="1188" y="970" width="40" height="16.25" as="geometry" />
        </mxCell>
        <mxCell id="OzW8gkyC8wNDTE9PfF5A-92" style="edgeStyle=orthogonalEdgeStyle;orthogonalLoop=1;jettySize=auto;html=1;entryX=0.75;entryY=1;entryDx=0;entryDy=0;fontSize=5;" edge="1" parent="1" source="OzW8gkyC8wNDTE9PfF5A-90" target="OzW8gkyC8wNDTE9PfF5A-82">
          <mxGeometry relative="1" as="geometry" />
        </mxCell>
        <mxCell id="OzW8gkyC8wNDTE9PfF5A-103" style="edgeStyle=orthogonalEdgeStyle;orthogonalLoop=1;jettySize=auto;html=1;entryX=0;entryY=0.5;entryDx=0;entryDy=0;fontSize=5;exitX=0.5;exitY=0;exitDx=0;exitDy=0;exitPerimeter=0;" edge="1" parent="1" source="OzW8gkyC8wNDTE9PfF5A-90" target="OzW8gkyC8wNDTE9PfF5A-102">
          <mxGeometry relative="1" as="geometry">
            <Array as="points">
              <mxPoint x="1238" y="1030" />
              <mxPoint x="1238" y="1060" />
              <mxPoint x="1308" y="1060" />
              <mxPoint x="1308" y="1063" />
            </Array>
          </mxGeometry>
        </mxCell>
        <mxCell id="OzW8gkyC8wNDTE9PfF5A-90" value="" style="strokeWidth=2;html=1;shape=mxgraph.flowchart.terminator;whiteSpace=wrap;rotation=90;" vertex="1" parent="1">
          <mxGeometry x="1207.21" y="1022.61" width="41.57" height="14.77" as="geometry" />
        </mxCell>
        <mxCell id="OzW8gkyC8wNDTE9PfF5A-126" style="edgeStyle=orthogonalEdgeStyle;orthogonalLoop=1;jettySize=auto;html=1;entryX=0;entryY=0.5;entryDx=0;entryDy=0;" edge="1" parent="1" source="OzW8gkyC8wNDTE9PfF5A-99" target="OzW8gkyC8wNDTE9PfF5A-118">
          <mxGeometry relative="1" as="geometry" />
        </mxCell>
        <mxCell id="OzW8gkyC8wNDTE9PfF5A-178" style="edgeStyle=orthogonalEdgeStyle;orthogonalLoop=1;jettySize=auto;html=1;entryX=0.5;entryY=0;entryDx=0;entryDy=0;" edge="1" parent="1" source="OzW8gkyC8wNDTE9PfF5A-99" target="OzW8gkyC8wNDTE9PfF5A-170">
          <mxGeometry relative="1" as="geometry">
            <Array as="points">
              <mxPoint x="1548" y="1123" />
              <mxPoint x="1548" y="526" />
              <mxPoint x="1413" y="526" />
            </Array>
          </mxGeometry>
        </mxCell>
        <mxCell id="OzW8gkyC8wNDTE9PfF5A-99" value="IR_EX_MEM" style="whiteSpace=wrap;html=1;fillColor=#fff2cc;strokeColor=#d6b656;" vertex="1" parent="1">
          <mxGeometry x="1358" y="1105" width="80" height="35" as="geometry" />
        </mxCell>
        <mxCell id="OzW8gkyC8wNDTE9PfF5A-117" style="edgeStyle=orthogonalEdgeStyle;orthogonalLoop=1;jettySize=auto;html=1;entryX=0;entryY=0.75;entryDx=0;entryDy=0;" edge="1" parent="1" source="OzW8gkyC8wNDTE9PfF5A-102" target="OzW8gkyC8wNDTE9PfF5A-113">
          <mxGeometry relative="1" as="geometry" />
        </mxCell>
        <mxCell id="OzW8gkyC8wNDTE9PfF5A-102" value="rs2_EX_MEM" style="whiteSpace=wrap;html=1;fillColor=#fff2cc;strokeColor=#d6b656;" vertex="1" parent="1">
          <mxGeometry x="1358" y="1045" width="80" height="35" as="geometry" />
        </mxCell>
        <mxCell id="OzW8gkyC8wNDTE9PfF5A-124" style="edgeStyle=orthogonalEdgeStyle;orthogonalLoop=1;jettySize=auto;html=1;entryX=0;entryY=0.5;entryDx=0;entryDy=0;" edge="1" parent="1" source="OzW8gkyC8wNDTE9PfF5A-104" target="OzW8gkyC8wNDTE9PfF5A-121">
          <mxGeometry relative="1" as="geometry" />
        </mxCell>
        <mxCell id="OzW8gkyC8wNDTE9PfF5A-173" style="edgeStyle=orthogonalEdgeStyle;orthogonalLoop=1;jettySize=auto;html=1;entryX=0.917;entryY=0.803;entryDx=0;entryDy=0;entryPerimeter=0;" edge="1" parent="1" source="OzW8gkyC8wNDTE9PfF5A-104" target="OzW8gkyC8wNDTE9PfF5A-170">
          <mxGeometry relative="1" as="geometry">
            <Array as="points">
              <mxPoint x="1528" y="918" />
              <mxPoint x="1528" y="613" />
            </Array>
          </mxGeometry>
        </mxCell>
        <mxCell id="OzW8gkyC8wNDTE9PfF5A-104" value="PC4_EX_MEM" style="whiteSpace=wrap;html=1;fillColor=#fff2cc;strokeColor=#d6b656;" vertex="1" parent="1">
          <mxGeometry x="1358" y="910" width="100" height="15" as="geometry" />
        </mxCell>
        <mxCell id="OzW8gkyC8wNDTE9PfF5A-123" style="edgeStyle=orthogonalEdgeStyle;orthogonalLoop=1;jettySize=auto;html=1;entryX=0;entryY=0.5;entryDx=0;entryDy=0;" edge="1" parent="1" source="OzW8gkyC8wNDTE9PfF5A-106" target="OzW8gkyC8wNDTE9PfF5A-122">
          <mxGeometry relative="1" as="geometry" />
        </mxCell>
        <mxCell id="OzW8gkyC8wNDTE9PfF5A-201" style="edgeStyle=orthogonalEdgeStyle;orthogonalLoop=1;jettySize=auto;html=1;entryX=0.5;entryY=0;entryDx=0;entryDy=0;" edge="1" parent="1" source="OzW8gkyC8wNDTE9PfF5A-106" target="OzW8gkyC8wNDTE9PfF5A-113">
          <mxGeometry relative="1" as="geometry" />
        </mxCell>
        <mxCell id="OzW8gkyC8wNDTE9PfF5A-106" value="CTRL_EX_MEM" style="whiteSpace=wrap;html=1;fillColor=#fff2cc;strokeColor=#d6b656;" vertex="1" parent="1">
          <mxGeometry x="1358" y="845" width="100" height="45" as="geometry" />
        </mxCell>
        <mxCell id="OzW8gkyC8wNDTE9PfF5A-125" style="edgeStyle=orthogonalEdgeStyle;orthogonalLoop=1;jettySize=auto;html=1;exitX=1;exitY=0.25;exitDx=0;exitDy=0;entryX=0;entryY=0.5;entryDx=0;entryDy=0;" edge="1" parent="1" source="OzW8gkyC8wNDTE9PfF5A-113" target="OzW8gkyC8wNDTE9PfF5A-120">
          <mxGeometry relative="1" as="geometry" />
        </mxCell>
        <mxCell id="OzW8gkyC8wNDTE9PfF5A-161" style="edgeStyle=orthogonalEdgeStyle;orthogonalLoop=1;jettySize=auto;html=1;entryX=0;entryY=0.75;entryDx=0;entryDy=0;" edge="1" parent="1" source="OzW8gkyC8wNDTE9PfF5A-118" target="OzW8gkyC8wNDTE9PfF5A-41">
          <mxGeometry relative="1" as="geometry">
            <Array as="points">
              <mxPoint x="1848" y="1122" />
              <mxPoint x="1848" y="1230" />
              <mxPoint x="888" y="1230" />
              <mxPoint x="888" y="1068" />
            </Array>
          </mxGeometry>
        </mxCell>
        <mxCell id="OzW8gkyC8wNDTE9PfF5A-200" style="edgeStyle=orthogonalEdgeStyle;orthogonalLoop=1;jettySize=auto;html=1;entryX=0.642;entryY=0.014;entryDx=0;entryDy=0;entryPerimeter=0;" edge="1" parent="1" source="OzW8gkyC8wNDTE9PfF5A-118" target="OzW8gkyC8wNDTE9PfF5A-170">
          <mxGeometry relative="1" as="geometry">
            <Array as="points">
              <mxPoint x="1828" y="1123" />
              <mxPoint x="1828" y="500" />
              <mxPoint x="1430" y="500" />
            </Array>
          </mxGeometry>
        </mxCell>
        <mxCell id="OzW8gkyC8wNDTE9PfF5A-118" value="IR_WB" style="whiteSpace=wrap;html=1;fillColor=#f8cecc;strokeColor=#b85450;" vertex="1" parent="1">
          <mxGeometry x="1728" y="1105" width="80" height="35" as="geometry" />
        </mxCell>
        <mxCell id="OzW8gkyC8wNDTE9PfF5A-164" style="edgeStyle=orthogonalEdgeStyle;orthogonalLoop=1;jettySize=auto;html=1;entryX=0.568;entryY=0.962;entryDx=0;entryDy=0;entryPerimeter=0;" edge="1" parent="1" source="OzW8gkyC8wNDTE9PfF5A-119" target="OzW8gkyC8wNDTE9PfF5A-35">
          <mxGeometry relative="1" as="geometry" />
        </mxCell>
        <mxCell id="OzW8gkyC8wNDTE9PfF5A-119" value="ALUans_WB" style="whiteSpace=wrap;html=1;fillColor=#f8cecc;strokeColor=#b85450;" vertex="1" parent="1">
          <mxGeometry x="1728" y="1037.38" width="80" height="36.25" as="geometry" />
        </mxCell>
        <mxCell id="OzW8gkyC8wNDTE9PfF5A-163" style="edgeStyle=orthogonalEdgeStyle;orthogonalLoop=1;jettySize=auto;html=1;entryX=0.405;entryY=0.985;entryDx=0;entryDy=0;entryPerimeter=0;" edge="1" parent="1" source="OzW8gkyC8wNDTE9PfF5A-120" target="OzW8gkyC8wNDTE9PfF5A-35">
          <mxGeometry relative="1" as="geometry" />
        </mxCell>
        <mxCell id="OzW8gkyC8wNDTE9PfF5A-120" value="MemData_WB" style="whiteSpace=wrap;html=1;fillColor=#f8cecc;strokeColor=#b85450;" vertex="1" parent="1">
          <mxGeometry x="1728" y="940" width="80" height="36.25" as="geometry" />
        </mxCell>
        <mxCell id="OzW8gkyC8wNDTE9PfF5A-162" style="edgeStyle=orthogonalEdgeStyle;orthogonalLoop=1;jettySize=auto;html=1;entryX=0.259;entryY=0.978;entryDx=0;entryDy=0;entryPerimeter=0;" edge="1" parent="1" source="OzW8gkyC8wNDTE9PfF5A-121" target="OzW8gkyC8wNDTE9PfF5A-35">
          <mxGeometry relative="1" as="geometry" />
        </mxCell>
        <mxCell id="OzW8gkyC8wNDTE9PfF5A-121" value="PC4_WB" style="whiteSpace=wrap;html=1;fillColor=#f8cecc;strokeColor=#b85450;" vertex="1" parent="1">
          <mxGeometry x="1728" y="910" width="70" height="15" as="geometry" />
        </mxCell>
        <mxCell id="OzW8gkyC8wNDTE9PfF5A-199" style="edgeStyle=orthogonalEdgeStyle;orthogonalLoop=1;jettySize=auto;html=1;entryX=0;entryY=0.5;entryDx=0;entryDy=0;entryPerimeter=0;" edge="1" parent="1" source="OzW8gkyC8wNDTE9PfF5A-122" target="OzW8gkyC8wNDTE9PfF5A-35">
          <mxGeometry relative="1" as="geometry" />
        </mxCell>
        <mxCell id="OzW8gkyC8wNDTE9PfF5A-207" style="edgeStyle=orthogonalEdgeStyle;rounded=0;orthogonalLoop=1;jettySize=auto;html=1;entryX=1.013;entryY=0.85;entryDx=0;entryDy=0;entryPerimeter=0;" edge="1" parent="1" source="OzW8gkyC8wNDTE9PfF5A-122" target="OzW8gkyC8wNDTE9PfF5A-41">
          <mxGeometry relative="1" as="geometry">
            <Array as="points">
              <mxPoint x="1868" y="868" />
              <mxPoint x="1868" y="1250" />
              <mxPoint x="1008" y="1250" />
              <mxPoint x="1008" y="1083" />
            </Array>
          </mxGeometry>
        </mxCell>
        <mxCell id="OzW8gkyC8wNDTE9PfF5A-122" value="CTRL_WB" style="whiteSpace=wrap;html=1;fillColor=#f8cecc;strokeColor=#b85450;" vertex="1" parent="1">
          <mxGeometry x="1728" y="845" width="80" height="45" as="geometry" />
        </mxCell>
        <mxCell id="OzW8gkyC8wNDTE9PfF5A-128" style="edgeStyle=orthogonalEdgeStyle;orthogonalLoop=1;jettySize=auto;html=1;entryX=0;entryY=0.5;entryDx=0;entryDy=0;" edge="1" parent="1" source="OzW8gkyC8wNDTE9PfF5A-60" target="OzW8gkyC8wNDTE9PfF5A-119">
          <mxGeometry relative="1" as="geometry">
            <Array as="points">
              <mxPoint x="1488" y="1005" />
              <mxPoint x="1488" y="1100" />
              <mxPoint x="1688" y="1100" />
              <mxPoint x="1688" y="1056" />
            </Array>
          </mxGeometry>
        </mxCell>
        <mxCell id="OzW8gkyC8wNDTE9PfF5A-146" style="edgeStyle=orthogonalEdgeStyle;orthogonalLoop=1;jettySize=auto;html=1;entryX=0.175;entryY=0.25;entryDx=0;entryDy=0;entryPerimeter=0;" edge="1" parent="1" source="OzW8gkyC8wNDTE9PfF5A-131" target="OzW8gkyC8wNDTE9PfF5A-145">
          <mxGeometry relative="1" as="geometry" />
        </mxCell>
        <mxCell id="OzW8gkyC8wNDTE9PfF5A-131" value="" style="shape=or;whiteSpace=wrap;html=1;rotation=-90;" vertex="1" parent="1">
          <mxGeometry x="1218" y="800" width="20" height="25" as="geometry" />
        </mxCell>
        <mxCell id="OzW8gkyC8wNDTE9PfF5A-143" style="edgeStyle=orthogonalEdgeStyle;orthogonalLoop=1;jettySize=auto;html=1;entryX=0.679;entryY=0.976;entryDx=0;entryDy=0;entryPerimeter=0;" edge="1" parent="1" source="OzW8gkyC8wNDTE9PfF5A-138" target="OzW8gkyC8wNDTE9PfF5A-27">
          <mxGeometry relative="1" as="geometry">
            <Array as="points">
              <mxPoint x="1145" y="720" />
              <mxPoint x="388" y="720" />
              <mxPoint x="388" y="1088" />
            </Array>
          </mxGeometry>
        </mxCell>
        <mxCell id="OzW8gkyC8wNDTE9PfF5A-138" value="ADD" style="shape=trapezoid;perimeter=trapezoidPerimeter;whiteSpace=wrap;html=1;fixedSize=1;rotation=0;" vertex="1" parent="1">
          <mxGeometry x="1115" y="750" width="60" height="30" as="geometry" />
        </mxCell>
        <mxCell id="OzW8gkyC8wNDTE9PfF5A-149" style="edgeStyle=orthogonalEdgeStyle;orthogonalLoop=1;jettySize=auto;html=1;entryX=0;entryY=0.5;entryDx=0;entryDy=0;entryPerimeter=0;" edge="1" parent="1" source="OzW8gkyC8wNDTE9PfF5A-145" target="OzW8gkyC8wNDTE9PfF5A-27">
          <mxGeometry relative="1" as="geometry">
            <Array as="points">
              <mxPoint x="1247" y="670" />
              <mxPoint x="443" y="670" />
            </Array>
          </mxGeometry>
        </mxCell>
        <mxCell id="OzW8gkyC8wNDTE9PfF5A-151" style="edgeStyle=orthogonalEdgeStyle;orthogonalLoop=1;jettySize=auto;html=1;entryX=0.5;entryY=0;entryDx=0;entryDy=0;" edge="1" parent="1" source="OzW8gkyC8wNDTE9PfF5A-145" target="OzW8gkyC8wNDTE9PfF5A-157">
          <mxGeometry relative="1" as="geometry">
            <mxPoint x="798" y="870" as="targetPoint" />
            <Array as="points">
              <mxPoint x="1247" y="670" />
              <mxPoint x="774" y="670" />
            </Array>
          </mxGeometry>
        </mxCell>
        <mxCell id="OzW8gkyC8wNDTE9PfF5A-155" style="edgeStyle=orthogonalEdgeStyle;orthogonalLoop=1;jettySize=auto;html=1;entryX=0.5;entryY=0;entryDx=0;entryDy=0;" edge="1" parent="1" source="OzW8gkyC8wNDTE9PfF5A-145" target="OzW8gkyC8wNDTE9PfF5A-159">
          <mxGeometry relative="1" as="geometry">
            <mxPoint x="1068" y="790" as="targetPoint" />
            <Array as="points">
              <mxPoint x="1247" y="670" />
              <mxPoint x="1048" y="670" />
            </Array>
          </mxGeometry>
        </mxCell>
        <mxCell id="OzW8gkyC8wNDTE9PfF5A-145" value="" style="shape=xor;whiteSpace=wrap;html=1;rotation=-90;" vertex="1" parent="1">
          <mxGeometry x="1229.5700000000002" y="735" width="35" height="45" as="geometry" />
        </mxCell>
        <mxCell id="OzW8gkyC8wNDTE9PfF5A-158" value="" style="group;" vertex="1" connectable="0" parent="1">
          <mxGeometry x="758" y="900" width="80" height="210" as="geometry" />
        </mxCell>
        <mxCell id="OzW8gkyC8wNDTE9PfF5A-150" value="" style="strokeWidth=2;html=1;shape=mxgraph.flowchart.annotation_1;align=left;pointerEvents=1;" vertex="1" parent="OzW8gkyC8wNDTE9PfF5A-158">
          <mxGeometry width="80" height="210" as="geometry" />
        </mxCell>
        <mxCell id="OzW8gkyC8wNDTE9PfF5A-157" value="&lt;b&gt;flush&lt;/b&gt;" style="text;html=1;strokeColor=none;fillColor=none;align=center;verticalAlign=middle;whiteSpace=wrap;" vertex="1" parent="OzW8gkyC8wNDTE9PfF5A-158">
          <mxGeometry width="32" height="20" as="geometry" />
        </mxCell>
        <mxCell id="OzW8gkyC8wNDTE9PfF5A-187" value="&lt;b&gt;stall&lt;/b&gt;" style="text;html=1;strokeColor=none;fillColor=none;align=center;verticalAlign=middle;whiteSpace=wrap;" vertex="1" parent="OzW8gkyC8wNDTE9PfF5A-158">
          <mxGeometry x="48" width="32" height="20" as="geometry" />
        </mxCell>
        <mxCell id="OzW8gkyC8wNDTE9PfF5A-160" value="" style="group;" vertex="1" connectable="0" parent="1">
          <mxGeometry x="1028" y="820" width="80" height="340" as="geometry" />
        </mxCell>
        <mxCell id="OzW8gkyC8wNDTE9PfF5A-154" value="" style="strokeWidth=2;html=1;shape=mxgraph.flowchart.annotation_1;align=left;pointerEvents=1;" vertex="1" parent="OzW8gkyC8wNDTE9PfF5A-160">
          <mxGeometry width="80" height="340" as="geometry" />
        </mxCell>
        <mxCell id="OzW8gkyC8wNDTE9PfF5A-159" value="&lt;b&gt;flush&lt;/b&gt;" style="text;html=1;strokeColor=none;fillColor=none;align=center;verticalAlign=middle;whiteSpace=wrap;" vertex="1" parent="OzW8gkyC8wNDTE9PfF5A-160">
          <mxGeometry width="40" height="20" as="geometry" />
        </mxCell>
        <mxCell id="OzW8gkyC8wNDTE9PfF5A-192" value="&lt;b&gt;stall&lt;/b&gt;" style="text;html=1;strokeColor=none;fillColor=none;align=center;verticalAlign=middle;whiteSpace=wrap;" vertex="1" parent="OzW8gkyC8wNDTE9PfF5A-160">
          <mxGeometry x="40" width="40" height="20" as="geometry" />
        </mxCell>
        <mxCell id="OzW8gkyC8wNDTE9PfF5A-169" value="" style="group;" vertex="1" connectable="0" parent="1">
          <mxGeometry x="908" y="955" width="80" height="150" as="geometry" />
        </mxCell>
        <mxCell id="OzW8gkyC8wNDTE9PfF5A-41" value="RegFile" style="whiteSpace=wrap;html=1;" vertex="1" parent="OzW8gkyC8wNDTE9PfF5A-169">
          <mxGeometry width="80" height="150" as="geometry" />
        </mxCell>
        <mxCell id="OzW8gkyC8wNDTE9PfF5A-167" value="WData" style="text;html=1;strokeColor=none;fillColor=none;align=center;verticalAlign=middle;whiteSpace=wrap;" vertex="1" parent="OzW8gkyC8wNDTE9PfF5A-169">
          <mxGeometry y="130" width="40" height="20" as="geometry" />
        </mxCell>
        <mxCell id="OzW8gkyC8wNDTE9PfF5A-208" value="WE" style="text;html=1;strokeColor=none;fillColor=none;align=center;verticalAlign=middle;whiteSpace=wrap;rounded=0;" vertex="1" parent="OzW8gkyC8wNDTE9PfF5A-169">
          <mxGeometry x="40" y="115" width="40" height="25" as="geometry" />
        </mxCell>
        <mxCell id="OzW8gkyC8wNDTE9PfF5A-179" style="edgeStyle=orthogonalEdgeStyle;orthogonalLoop=1;jettySize=auto;html=1;entryX=0.5;entryY=1;entryDx=0;entryDy=0;entryPerimeter=0;" edge="1" parent="1" source="OzW8gkyC8wNDTE9PfF5A-170" target="OzW8gkyC8wNDTE9PfF5A-84">
          <mxGeometry relative="1" as="geometry">
            <Array as="points">
              <mxPoint x="1178" y="588" />
              <mxPoint x="1178" y="978" />
            </Array>
          </mxGeometry>
        </mxCell>
        <mxCell id="OzW8gkyC8wNDTE9PfF5A-180" style="edgeStyle=orthogonalEdgeStyle;orthogonalLoop=1;jettySize=auto;html=1;exitX=0;exitY=1;exitDx=0;exitDy=0;entryX=0.5;entryY=1;entryDx=0;entryDy=0;entryPerimeter=0;" edge="1" parent="1" source="OzW8gkyC8wNDTE9PfF5A-170" target="OzW8gkyC8wNDTE9PfF5A-90">
          <mxGeometry relative="1" as="geometry">
            <Array as="points">
              <mxPoint x="1188" y="618" />
              <mxPoint x="1188" y="1030" />
            </Array>
          </mxGeometry>
        </mxCell>
        <mxCell id="OzW8gkyC8wNDTE9PfF5A-186" style="edgeStyle=orthogonalEdgeStyle;orthogonalLoop=1;jettySize=auto;html=1;exitX=0.375;exitY=0.052;exitDx=0;exitDy=0;exitPerimeter=0;entryX=0.5;entryY=0;entryDx=0;entryDy=0;" edge="1" parent="1" source="OzW8gkyC8wNDTE9PfF5A-170" target="OzW8gkyC8wNDTE9PfF5A-1">
          <mxGeometry relative="1" as="geometry">
            <mxPoint x="1398" y="510" as="sourcePoint" />
            <mxPoint x="538" y="1000" as="targetPoint" />
            <Array as="points">
              <mxPoint x="1398" y="500" />
              <mxPoint x="538" y="500" />
            </Array>
          </mxGeometry>
        </mxCell>
        <mxCell id="OzW8gkyC8wNDTE9PfF5A-194" style="edgeStyle=orthogonalEdgeStyle;orthogonalLoop=1;jettySize=auto;html=1;exitX=0.669;exitY=0.961;exitDx=0;exitDy=0;entryX=0.5;entryY=0;entryDx=0;entryDy=0;entryPerimeter=0;exitPerimeter=0;" edge="1" parent="1" source="OzW8gkyC8wNDTE9PfF5A-170" target="OzW8gkyC8wNDTE9PfF5A-193">
          <mxGeometry relative="1" as="geometry" />
        </mxCell>
        <mxCell id="OzW8gkyC8wNDTE9PfF5A-196" style="edgeStyle=orthogonalEdgeStyle;orthogonalLoop=1;jettySize=auto;html=1;exitX=0.386;exitY=0.981;exitDx=0;exitDy=0;entryX=0;entryY=0.5;entryDx=0;entryDy=0;entryPerimeter=0;exitPerimeter=0;" edge="1" parent="1" source="OzW8gkyC8wNDTE9PfF5A-170" target="OzW8gkyC8wNDTE9PfF5A-84">
          <mxGeometry relative="1" as="geometry">
            <Array as="points">
              <mxPoint x="1399" y="650" />
              <mxPoint x="1208" y="650" />
            </Array>
          </mxGeometry>
        </mxCell>
        <mxCell id="OzW8gkyC8wNDTE9PfF5A-198" style="edgeStyle=orthogonalEdgeStyle;orthogonalLoop=1;jettySize=auto;html=1;exitX=0.297;exitY=0.954;exitDx=0;exitDy=0;entryX=0;entryY=0.5;entryDx=0;entryDy=0;entryPerimeter=0;exitPerimeter=0;" edge="1" parent="1" source="OzW8gkyC8wNDTE9PfF5A-170" target="OzW8gkyC8wNDTE9PfF5A-90">
          <mxGeometry relative="1" as="geometry">
            <Array as="points">
              <mxPoint x="1390" y="626" />
              <mxPoint x="1390" y="670" />
              <mxPoint x="1278" y="670" />
              <mxPoint x="1278" y="900" />
              <mxPoint x="1228" y="900" />
            </Array>
          </mxGeometry>
        </mxCell>
        <mxCell id="OzW8gkyC8wNDTE9PfF5A-170" value="DataHazard" style="ellipse;whiteSpace=wrap;html=1;fillColor=#e1d5e7;strokeColor=#9673a6;" vertex="1" parent="1">
          <mxGeometry x="1353" y="545.63" width="120" height="84.37" as="geometry" />
        </mxCell>
        <mxCell id="OzW8gkyC8wNDTE9PfF5A-172" value="" style="group;" vertex="1" connectable="0" parent="1">
          <mxGeometry x="1568" y="930" width="90" height="150" as="geometry" />
        </mxCell>
        <mxCell id="OzW8gkyC8wNDTE9PfF5A-171" value="WData" style="text;html=1;strokeColor=none;fillColor=none;align=center;verticalAlign=middle;whiteSpace=wrap;" vertex="1" parent="OzW8gkyC8wNDTE9PfF5A-172">
          <mxGeometry y="102.5" width="40" height="20" as="geometry" />
        </mxCell>
        <mxCell id="OzW8gkyC8wNDTE9PfF5A-203" value="" style="group;" vertex="1" connectable="0" parent="OzW8gkyC8wNDTE9PfF5A-172">
          <mxGeometry width="90" height="150" as="geometry" />
        </mxCell>
        <mxCell id="OzW8gkyC8wNDTE9PfF5A-113" value="DataMem" style="whiteSpace=wrap;html=1;" vertex="1" parent="OzW8gkyC8wNDTE9PfF5A-203">
          <mxGeometry width="90" height="150" as="geometry" />
        </mxCell>
        <mxCell id="OzW8gkyC8wNDTE9PfF5A-202" value="WE" style="text;html=1;strokeColor=none;fillColor=none;align=center;verticalAlign=middle;whiteSpace=wrap;" vertex="1" parent="OzW8gkyC8wNDTE9PfF5A-203">
          <mxGeometry x="25" width="40" height="20" as="geometry" />
        </mxCell>
        <mxCell id="OzW8gkyC8wNDTE9PfF5A-188" style="edgeStyle=orthogonalEdgeStyle;orthogonalLoop=1;jettySize=auto;html=1;entryX=0.5;entryY=0;entryDx=0;entryDy=0;" edge="1" parent="1" target="OzW8gkyC8wNDTE9PfF5A-187">
          <mxGeometry relative="1" as="geometry">
            <mxPoint x="1397" y="547" as="sourcePoint" />
            <mxPoint x="548" y="939.9999999999999" as="targetPoint" />
            <Array as="points">
              <mxPoint x="1397" y="500" />
              <mxPoint x="822" y="500" />
            </Array>
          </mxGeometry>
        </mxCell>
        <mxCell id="OzW8gkyC8wNDTE9PfF5A-189" style="edgeStyle=orthogonalEdgeStyle;orthogonalLoop=1;jettySize=auto;html=1;exitX=0.377;exitY=0.016;exitDx=0;exitDy=0;exitPerimeter=0;entryX=0.755;entryY=0.004;entryDx=0;entryDy=0;entryPerimeter=0;" edge="1" parent="1" source="OzW8gkyC8wNDTE9PfF5A-170" target="OzW8gkyC8wNDTE9PfF5A-154">
          <mxGeometry relative="1" as="geometry">
            <mxPoint x="1398" y="535.01724" as="sourcePoint" />
            <mxPoint x="538" y="914.9999999999999" as="targetPoint" />
            <Array as="points">
              <mxPoint x="1398" y="500" />
              <mxPoint x="1088" y="500" />
            </Array>
          </mxGeometry>
        </mxCell>
        <mxCell id="OzW8gkyC8wNDTE9PfF5A-191" value="" style="group;" vertex="1" connectable="0" parent="1">
          <mxGeometry x="518" y="1032.5" width="40" height="85" as="geometry" />
        </mxCell>
        <mxCell id="OzW8gkyC8wNDTE9PfF5A-1" value="PC" style="whiteSpace=wrap;html=1;" vertex="1" parent="OzW8gkyC8wNDTE9PfF5A-191">
          <mxGeometry width="40" height="85" as="geometry" />
        </mxCell>
        <mxCell id="OzW8gkyC8wNDTE9PfF5A-49" value="&lt;b&gt;stall&lt;/b&gt;" style="text;html=1;strokeColor=none;fillColor=none;align=center;verticalAlign=middle;whiteSpace=wrap;fontSize=5;" vertex="1" parent="OzW8gkyC8wNDTE9PfF5A-191">
          <mxGeometry width="40" height="20" as="geometry" />
        </mxCell>
        <mxCell id="OzW8gkyC8wNDTE9PfF5A-193" value="" style="strokeWidth=2;html=1;shape=mxgraph.flowchart.annotation_1;align=left;pointerEvents=1;" vertex="1" parent="1">
          <mxGeometry x="1348" y="820" width="50" height="340" as="geometry" />
        </mxCell>
        <mxCell id="OzW8gkyC8wNDTE9PfF5A-195" value="flush" style="text;html=1;strokeColor=none;fillColor=none;align=center;verticalAlign=middle;whiteSpace=wrap;" vertex="1" parent="1">
          <mxGeometry x="1348" y="820" width="40" height="20" as="geometry" />
        </mxCell>
        <mxCell id="OzW8gkyC8wNDTE9PfF5A-206" value="" style="group;" vertex="1" connectable="0" parent="1">
          <mxGeometry x="1258" y="955" width="40" height="97.5" as="geometry" />
        </mxCell>
        <mxCell id="OzW8gkyC8wNDTE9PfF5A-82" value="ALU" style="shape=trapezoid;perimeter=trapezoidPerimeter;whiteSpace=wrap;html=1;fixedSize=1;direction=south;" vertex="1" parent="OzW8gkyC8wNDTE9PfF5A-206">
          <mxGeometry width="40" height="97.5" as="geometry" />
        </mxCell>
        <mxCell id="OzW8gkyC8wNDTE9PfF5A-205" value="op" style="text;html=1;strokeColor=none;fillColor=none;align=center;verticalAlign=middle;whiteSpace=wrap;" vertex="1" parent="OzW8gkyC8wNDTE9PfF5A-206">
          <mxGeometry x="16.57000000000005" y="15" width="23.43" height="20" as="geometry" />
        </mxCell>
      </root>
    </mxGraphModel>
  </diagram>
</mxfile>
